<?xml version="1.0" encoding="utf-8"?>
<!-- Generator: Adobe Illustrator 26.5.0, SVG Export Plug-In . SVG Version: 6.00 Build 0)  -->
<svg version="1.1" id="Livello_1" xmlns="http://www.w3.org/2000/svg" xmlns:xlink="http://www.w3.org/1999/xlink" x="0px" y="0px"
	 viewBox="0 0 1063.9 599.4" style="enable-background:new 0 0 1063.9 599.4;" xml:space="preserve">
<style type="text/css">
	.st0{fill:#FFFA72;}
	.st1{fill:#E892C7;}
	.st2{fill:#93D6E5;}
</style>
<g id="cool-background" transform="translate(22.5 17.5)">
	<path id="Path_1" class="st0" d="M246,457.4c-18.1-40.2-14.7-65.5,10.2-75.7c37.3-15.3,126.2-21.5,163.3-54.7s150.3-7.5,169.7,49.5
		s54.2,145-129.6,145C337.1,521.5,265.9,500.1,246,457.4L246,457.4z"/>
	<g transform="matrix(1, 0, 0, 1, -22.5, -17.5)">
		<path id="Path_3-2" class="st1" d="M22.6,402c5.7-106.6,48.4-173.5,128-200.5C270,160.9,513.5,144.7,656.1,56.6
			s408.4-20,383.6,131.2S990.2,572,503.2,572C178.5,572,18.3,515.3,22.6,402L22.6,402z"/>
	</g>
	<g transform="matrix(1, 0, 0, 1, -22.5, -17.5)">
		<path id="Path_6-2" class="st2" d="M85.3,421.9c-8.6-88.5,18.4-144,81.1-166.5c94-33.7,294.1-47.2,401.5-120.3
			s336.5-16.6,335,108.9S909.9,563,505.6,563C236.1,563,96,515.9,85.3,421.9L85.3,421.9z"/>
	</g>
</g>
</svg>
