<?xml version="1.0" encoding="utf-8"?>
<!-- Generator: Adobe Illustrator 26.5.0, SVG Export Plug-In . SVG Version: 6.00 Build 0)  -->
<svg version="1.1" id="Livello_1" xmlns="http://www.w3.org/2000/svg" xmlns:xlink="http://www.w3.org/1999/xlink" x="0px" y="0px"
	 viewBox="0 0 1063.9 599.4" style="enable-background:new 0 0 1063.9 599.4;" xml:space="preserve">
<style type="text/css">
	.st0{fill:#E892C7;}
	.st1{fill:#93D6E5;}
</style>
<g id="cool-background" transform="translate(-309.407 133.702)">
	<path id="Path_1" class="st0" d="M577.9-19.1c-18.1,40.2-14.7,65.5,10.2,75.7c37.3,15.3,126.2,21.5,163.3,54.7
		s150.3,7.5,169.7-49.5s54.2-145-129.6-145C669-83.2,597.8-61.8,577.9-19.1L577.9-19.1z"/>
	<g transform="matrix(1, 0, 0, 1, 309.41, -133.7)">
		<path id="Path_3-2_00000085213673203935732860000010342870868747400126_" class="st0" d="M22.6,187.4
			C28.3,294,71,360.9,150.6,387.9c119.4,40.6,362.9,56.8,505.6,144.9s408.4,20,383.6-131.2S990.2,17.5,503.2,17.5
			C178.5,17.5,18.3,74.1,22.6,187.4L22.6,187.4z"/>
	</g>
	<g transform="matrix(1, 0, 0, 1, 309.41, -133.7)">
		<path id="Path_6-2_00000015341534183159154950000008856045360994325910_" class="st1" d="M85.3,167.6
			c-8.6,88.5,18.4,144,81.1,166.5c94,33.7,294.1,47.2,401.5,120.3s336.5,16.6,335-108.9S910,26.6,505.7,26.6
			C236.1,26.5,96,73.5,85.3,167.6L85.3,167.6z"/>
	</g>
</g>
</svg>
